<svg xmlns="http://www.w3.org/2000/svg" width="32" height="32" viewBox="0 0 32 32">
  <defs>
    <linearGradient id="waveGradient" x1="0%" y1="0%" x2="100%" y2="100%">
      <stop offset="0%" style="stop-color:#20B2AA;stop-opacity:1" />
      <stop offset="30%" style="stop-color:#40E0D0;stop-opacity:1" />
      <stop offset="70%" style="stop-color:#20B2AA;stop-opacity:1" />
      <stop offset="100%" style="stop-color:#008B8B;stop-opacity:1" />
    </linearGradient>
  </defs>
  <path d="M 8 16 C 8 10, 12 8, 16 12 C 20 16, 24 14, 28 18 C 28 22, 24 24, 20 20 C 16 16, 12 18, 8 16 Z" fill="url(#waveGradient)" stroke="#006666" stroke-width="0.5"/>
  <path d="M 10 18 C 10 15, 13 14, 16 16 C 19 18, 22 17, 25 19 C 25 21, 22 22, 19 20 C 16 18, 13 19, 10 18 Z" fill="#48D1CC" opacity="0.7"/>
  <circle cx="22" cy="20" r="2" fill="#40E0D0" opacity="0.8"/>
</svg>